<svg xmlns="http://www.w3.org/2000/svg" viewBox="0 0 512 512" role="img" aria-labelledby="title desc">
  <title id="title">TEKKEN 8 Member Cards</title>
  <desc id="desc">A wanted poster pinned to a wooden board with a red fighting fist emblem.</desc>
  <defs>
    <linearGradient id="wood" x1="0" y1="0" x2="1" y2="1">
      <stop stop-color="#4a2a16"/>
      <stop offset=".45" stop-color="#1d1009"/>
      <stop offset="1" stop-color="#542d17"/>
    </linearGradient>
    <linearGradient id="paper" x1="0" y1="0" x2="0" y2="1">
      <stop stop-color="#ffe7bd"/>
      <stop offset="1" stop-color="#c9985c"/>
    </linearGradient>
    <filter id="shadow" x="-20%" y="-20%" width="140%" height="150%">
      <feDropShadow dx="0" dy="12" stdDeviation="12" flood-color="#000" flood-opacity=".55"/>
    </filter>
  </defs>
  <rect width="512" height="512" rx="104" fill="url(#wood)"/>
  <path d="M32 92h448M32 162h448M32 350h448M32 420h448" stroke="#8a5231" stroke-opacity=".32" stroke-width="9"/>
  <g filter="url(#shadow)">
    <path d="M111 78h290l-18 356-42-21-85 33-85-33-42 21z" fill="url(#paper)" stroke="#6f3d1f" stroke-width="12" stroke-linejoin="round"/>
    <path d="M133 117h246M146 374h220" stroke="#743116" stroke-width="10"/>
    <path d="M183 162h146v46H183z" fill="#743116" opacity=".9"/>
    <path d="M201 188h110" stroke="#f8d490" stroke-width="10"/>
    <path d="M202 310c-20-26-13-55 8-70l29-20 9-35c4-14 23-14 27 0l6 22 12-13c11-12 31-1 27 15l-6 24 15-5c15-5 25 14 13 25l-27 25c-10 9-17 20-21 33l-9 31c-7 24-39 31-56 12z" fill="#9e1c20" stroke="#5e0e12" stroke-width="10" stroke-linejoin="round"/>
    <circle cx="139" cy="101" r="14" fill="#d7a93e" stroke="#6e4716" stroke-width="6"/>
  </g>
</svg>
